<svg id="Layer_6" data-name="Layer 6" xmlns="http://www.w3.org/2000/svg" viewBox="0 0 1037.63 845.85"><defs><style>.cls-1{fill:#c15911;}</style></defs><path class="cls-1" d="M990.9,299.92c-3.58-4.56-7.31-9-10.72-13.69-45.06-61.7-102.12-108.88-172-139.69Q697.66,97.84,577.64,115c-35.79,5.18-69.78,16.08-103.74,27.6-1.67,2.62-4.32,3.15-7.13,3.38a17.07,17.07,0,0,1-10.48,5l-46.69,26.4c-2.31,4.5-9.1,2.37-11,7.44l-41.78,32.76-5.3,4.75-49.72,54.79q-8.36,11.65-16.72,23.32l-5.25,8.63c-2.56,5.66-5.29,11.2-9.84,15.61-.94,1.54-1.89,3.07-2.84,4.61q-4.42,8.82-8.86,17.63l-2.79,5.73c-9.18,22.47-18.72,44.73-25.42,68.2-3.61,12.62.21,14.8,11.67,14.16a415.35,415.35,0,0,1,43.79,0c10,.5,15.37-1.94,18.59-12.66A295.43,295.43,0,0,1,342.58,341c12.58-18.54,25.13-37.2,43.07-52.66,18.37,46,36.46,90.5,53.83,135.32,3.36,8.69,7.66,11.73,16.94,11.49,24.81-.66,49.66-.72,74.47,0,11.89.34,15.22-1.62,10.18-14.05-18.39-45.47-36.32-91.14-53.22-137.18-5.1-13.91-11.36-20.39-27-18.74-15.86,1.68-32,.38-51.25.38,156.15-131.1,362.42-90.45,455.69,0-19.8,0-38.69.26-57.58-.13-7.16-.15-11.67,1.52-14.48,8.81q-29.09,75.45-58.87,150.61c-3.75,9.46.26,10.33,8.18,10.22,15.55-.21,31.11.32,46.66.54l9,.11c17.42-1.46,38.89,5.06,43.31-22a163.54,163.54,0,0,1,14.39-36c11.63-30.13,23.25-60.26,35.54-92.13,21.38,22.77,40.1,44.27,53.34,70,6.07,6.53,9.56,14.48,12.43,22.76,9.57,14.84,14.62,31.69,21,47.91,1.85,4.71,2.66,8.91,9.32,8.8,20.26-.33,40.54-.12,61.46-.12-6-33.05-19.67-61.53-32.23-90.39Z" transform="translate(-120.56 -110.48)"/><path class="cls-1" d="M1036.24,632a294.34,294.34,0,0,1-39.4,0c-11.21-.79-16.53,2.35-20.82,13.84-49.6,133-143.61,215.09-283.89,239.84-157.92,27.87-322.23-67.28-380-217.21-4.51-11.7-5.79-28.28-14.3-33.84-9.32-6.1-25.28-2.32-38.36-2.37-35.9-.15-35.2-.29-23.06,34.72,15.93,45.93,40.32,87.11,67.93,126.68a29.55,29.55,0,0,1,8.77,11.67l12.3,13.33a38.13,38.13,0,0,1,11.35,12.06c5.17,4.37,10.46,8.62,15.5,13.13,103.49,92.77,223.8,128.54,361,105.91,41.93-6.92,81.25-22.26,119.59-40.19l23.6-13.72,5.68-3.51a17.9,17.9,0,0,1,9.89-6.19l45.39-35.34,2.33-2.09c22.53-22.16,44.86-44.46,62.74-70.78,28-41.28,51-84.9,64-133.42C1049.51,633.54,1046.65,631.32,1036.24,632Z" transform="translate(-120.56 -110.48)"/><path class="cls-1" d="M527.26,642.15q30.57,75.58,60.57,151.4c2.28,5.75,5.45,8.1,11.85,8,25.77-.34,51.56-.4,77.33,0,7.31.12,10.25-3.35,12.62-9.32q29.75-75.13,59.86-150.11c3.09-7.64,2.14-10.36-6.61-10.12-16,.45-32.19,1.26-48.12-.12-28.14-2.43-53.31-1.84-54,38.85-8.38-11.11-10.55-20.72-14.09-29.6-2.48-6.24-5.4-9.26-12.59-9.15q-40.11.59-80.24,0C525.07,631.92,524.23,634.67,527.26,642.15Z" transform="translate(-120.56 -110.48)"/><path class="cls-1" d="M1013.22,546.11c17.56-10,25-30.46,20.88-51.91-3.61-18.94-16.74-31.27-38.13-34.59s-42.74-.46-64.07-1.66c-9-.51-11.57,2.21-11.48,11.27.47,42.79.41,85.58,0,128.36-.07,8.43,1.49,11.71,11,11.89,11.88.22,18.69-1.54,16.28-15.55-1.06-6.14-.18-12.61-.18-18.93,0-23.17,0-22.54,23-21.7,9.61.35,10.31,7.4,13.43,12.79,4.62,8,9.77,15.93,12.54,24.58,5.86,18.23,18.21,21.44,37,17-8.58-16.31-16.06-31.46-24.43-46.1C1004.85,554.2,1005,550.8,1013.22,546.11ZM992,528.27c-12.8,4.54-25.9,2.26-38.87,2.76-4.45.18-5.62-2.64-5.57-6.58.1-6.78,0-13.56,0-20.34,0-23.13,0-23.13,22.51-23.62,6.72.7,13.66.58,20.11,2.29,11,2.91,17.19,10.73,17.53,22.19C1008.05,516.23,1003.28,524.27,992,528.27Z" transform="translate(-120.56 -110.48)"/><path class="cls-1" d="M420,609.11c7.34,0,14.61,1.6,13.84-10.45-1-15.5,0-31.13-.34-46.69-.16-7,2.37-9.36,9.31-9.22,18,.35,36,.38,54,0,6.92-.16,9.4,2,9.2,9-.43,15.55.71,31.19-.4,46.69-.84,11.84,5.9,10.82,13.46,10.67,7.23-.14,14.44,1.81,13.88-10.39-1-21.36-.27-42.8-.27-64.21,0-21.9-.66-43.82.27-65.68.5-11.57-5.74-11.09-13.48-10.78-7,.29-14.81-2.2-13.85,10.28,1.12,14.51,0,29.18.37,43.77.15,6.28-2,8.47-8.29,8.36-18-.32-36-.51-54,.07-9,.29-10.45-3.87-10.21-11.46.42-13.61-.57-27.29.32-40.86.8-12.23-7-9.93-14.11-10.16-7.65-.25-13.63-.94-13.42,10.73q1.13,64.94,0,129.9C406.09,610.88,412.79,609.08,420,609.11Z" transform="translate(-120.56 -110.48)"/><path class="cls-1" d="M1144.6,586.12c-10.2.15-20.41,0-30.61,0-31.2,0-31,0-30.2-31.48.18-7.31,1.62-10.49,9.63-10,11.14.66,22.38-.39,33.51.34,9.38.61,12.57-2.17,12.56-12s-4.37-11.39-12.37-10.66c-4.34.4-8.74.07-13.12.07-30.59,0-30.24,0-30.24-30.09,0-8.64,1.73-11.91,11.1-11.47,17.46.81,35-.17,52.47.41,8.17.27,11.28-2.05,10.54-10.45-.6-6.82,1.11-13.18-9.93-12.89-27.19.74-54.42.48-81.63.09-7.66-.11-10.15,2.37-10,9.95.38,21.86.13,43.73.13,65.59,0,21.38.34,42.77-.18,64.14-.22,8.69,2.08,11.87,11.35,11.64,25.74-.62,51.52-.67,77.26,0,10,.27,13-2.3,13.32-12.69C1158.59,584.59,1152,586,1144.6,586.12Z" transform="translate(-120.56 -110.48)"/><path class="cls-1" d="M830.18,457.56h-5.86c-6.73,0-13.09.72-15.12,8.82-.94,4.26-2,8.47-5.16,11.77q-2.17,6.25-4.33,12.51l-11.43,28.69c-10.46,26.58-21,53.13-31.29,79.78-1.14,3-5.67,6.64,0,9.66,8.16,4.37,24.13-1.38,27.57-9.74,10.3-25,10.3-25,37.69-25a24.38,24.38,0,0,0,4.36,0c22.73-4.29,37.9,2.34,42.15,27.27,1.16,6.86,19,11.92,25.83,7.39,7.17-4.77.08-10.39-1.58-14.79-15.72-41.64-32-83-48.14-124.52-1.25-1-2.26-2.09-.87-3.72C840.52,461,836.84,456.72,830.18,457.56Zm19.7,92.91H804.46c.75-14.24,8.45-26.23,12.76-39.31,2.26-6.87,5.12-13.54,8.81-23.17C834.48,510.12,842,529.87,849.88,550.47Z" transform="translate(-120.56 -110.48)"/><path class="cls-1" d="M298.45,609.34c25.74-.83,51.55-.84,77.29,0,10.76.36,11.16-4.49,11.74-12.9.72-10.45-4.62-10.66-12.23-10.39-10.68.38-21.38.1-32.08.1-31.1,0-30.69,0-30.26-31.46.13-9,3.42-10.39,11.09-10,11.16.56,22.41-.49,33.53.34,9.5.7,11-3.24,11.25-11.72.27-9.52-3.34-12-11.87-11-4.32.49-8.74.08-13.12.08-31.44,0-31.14,0-30.82-30.91.08-8,2-10.93,10.4-10.61,17,.65,34,0,51,.29,8,.16,13.59.19,13.16-11-.37-9.54-2.83-12.47-12.45-12.23-25.75.63-51.54.73-77.29,0-10.27-.31-12.06,3.61-11.82,12.61.54,20.89.17,41.8.17,62.7s.42,41.82-.19,62.7C285.71,605.41,287.49,609.69,298.45,609.34Z" transform="translate(-120.56 -110.48)"/><path class="cls-1" d="M672.77,482.81c20.09-4.72,40.56-4.26,58.61,8.62l7.74,4,1-20.21c-.14-3.47-2.23-5.9-4.41-8.29-4-1.71-7.9-3.65-12-5.1-56.83-20.13-120.25,6.84-115.93,79.28,3.2,53.75,57,85.24,113.48,65.61,20.49-7.12,23.25-12.44,17.56-35-16,12.18-34,15.84-53.59,14.65-28-1.69-46.7-19.11-50-47.31C632.05,512.46,646.7,488.93,672.77,482.81Z" transform="translate(-120.56 -110.48)"/><path class="cls-1" d="M262.15,458.78c-25.72-1.76-25.72-1.76-35,21.91L191.42,572c-13.63-34.93-26.83-66.13-37.79-98.1-4.53-13.22-11-17.18-24-16.08-8.58.72-11.06,1.67-7.36,10.73,17.79,43.5,35.35,87.11,52.06,131,3.83,10,10.27,9.34,18.12,9.65,8,.31,12.92-1.19,16.27-9.94C225.65,555,243.53,511,261,466.8,262.05,464.27,264.32,461.8,262.15,458.78Z" transform="translate(-120.56 -110.48)"/><path class="cls-1" d="M571.74,609.21c8.46.2,14.81.47,14.25-11.62-1-21.31-.27-42.69-.27-64s-.71-42.73.27-64c.57-12.23-6-11.62-14.34-11.53-7.74.08-13.54-.6-13.35,10.89q1.1,64.76,0,129.54C558.1,610.08,564.14,609,571.74,609.21Z" transform="translate(-120.56 -110.48)"/></svg>